<svg width="213" height="142" viewBox="0 0 213 142" fill="none" xmlns="http://www.w3.org/2000/svg">
<path d="M121.746 87.708V95.0996H140.139V95.7842L138.062 99.3799H121.746V126.896C121.746 129.225 122.132 131.069 122.971 132.36C123.794 133.627 124.914 134.493 126.318 134.94L126.344 134.948C127.738 135.312 129.218 135.492 130.782 135.492C132.824 135.492 134.621 135.192 136.16 134.576C137.513 134.035 138.793 133.419 140.001 132.729L141.015 133.912C139.294 135.626 137.238 137.192 134.84 138.609C132.345 140.025 129.471 140.74 126.206 140.74C122.656 140.74 119.879 139.825 117.821 138.046C115.804 136.301 114.738 133.421 114.738 129.272V99.3799H109.194V97.5303C113.633 95.0341 117.195 91.7606 119.873 87.708H121.746Z" stroke="white"/>
<path d="M79.7168 94.2197C84.3973 94.2197 88.4766 95.2015 91.9697 97.1484C95.4672 99.0979 98.1873 101.818 100.137 105.315L100.138 105.318C102.083 108.752 103.065 112.771 103.065 117.392C103.065 121.771 102.087 125.735 100.137 129.292C98.1859 132.792 95.4624 135.574 91.959 137.642L91.9561 137.643C88.5262 139.7 84.4526 140.739 79.7168 140.739C75.0962 140.739 71.0467 139.758 67.5527 137.811C64.0553 135.861 61.3352 133.142 59.3857 129.645C57.4383 126.151 56.457 122.1 56.457 117.479C56.4571 113.098 57.4362 109.165 59.3857 105.667C61.3372 102.166 64.0318 99.3852 67.4756 97.3184C70.9666 95.2582 75.0414 94.2198 79.7168 94.2197ZM78.3975 96.6514C74.2647 96.6514 70.813 98.2092 68.0781 101.309C65.3243 104.43 63.9932 109.118 63.9932 115.279C63.9932 119.263 64.6177 123.016 65.8701 126.535L65.874 126.545C67.1907 130.016 69.1125 132.847 71.6475 135.02C74.2131 137.219 77.3837 138.308 81.125 138.308C85.2578 138.308 88.7094 136.75 91.4443 133.65C94.1974 130.53 95.5293 125.871 95.5293 119.768C95.5293 115.725 94.8748 111.969 93.5615 108.506C92.3042 104.976 90.4111 102.115 87.874 99.9404C85.3085 97.7414 82.1385 96.6515 78.3975 96.6514Z" stroke="white"/>
<path d="M26.4883 79.2598C33.7782 79.2598 39.1404 80.5455 42.6543 83.0391C46.1423 85.5144 47.9003 89.1367 47.9004 93.9834C47.9004 96.075 47.4195 98.1753 46.4492 100.287L46.4473 100.293C45.6083 102.18 44.1704 103.917 42.1045 105.497L41.6826 105.811C39.4191 107.393 36.245 108.547 32.125 109.243L32.0693 110.216C35.0518 111.076 37.4667 112.446 39.334 114.313L39.3398 114.318C41.2104 116.132 42.729 118.586 43.8828 121.701L43.8838 121.704C45.0411 124.771 45.9732 128.578 46.6738 133.132V133.135C46.9164 134.651 47.3803 135.864 48.1064 136.723L48.1123 136.73L48.1191 136.737C48.8824 137.57 50.0521 138.007 51.5264 138.13H51.5293L52.2119 138.183V139.859H46.6396C43.8014 139.859 41.9784 139.333 41.0078 138.42C40.122 137.533 39.4168 135.964 38.9502 133.623L38.8604 133.145C38.1415 128.888 37.1879 125.139 35.9961 121.9L35.7549 121.26C34.4457 117.809 32.736 115.125 30.6084 113.238H30.6094C28.4548 111.268 25.7785 110.292 22.6162 110.292H16.5723V131.384C16.5723 133.479 16.9575 135.116 17.8281 136.188L17.8379 136.199C18.7319 137.231 20.2481 137.746 22.2334 137.866L26.252 138.182V139.859H0.5V138.173L3.65625 137.865L3.65527 137.864C5.638 137.684 7.14577 137.136 8.03418 136.111C8.91675 135.093 9.2998 133.474 9.2998 131.384V87.7354C9.29975 85.6452 8.91649 84.0272 8.03418 83.0088C7.14575 81.9837 5.63806 81.4344 3.65527 81.2539H3.65625L0.5 80.9463V79.2598H26.4883ZM25.8721 81.7793C22.642 81.7793 20.2795 82.0123 18.8438 82.5117L18.8369 82.5137C18.1311 82.7703 17.5588 83.139 17.1631 83.6426C16.7627 84.1522 16.5723 84.7641 16.5723 85.4482V107.859H24.9043C29.3449 107.859 32.9662 106.596 35.7168 104.029H35.7178C38.5194 101.41 39.9238 98.1385 39.9238 94.248C39.9238 90.3295 38.7435 87.2454 36.3252 85.0752C33.9674 82.8481 30.451 81.7793 25.8721 81.7793Z" stroke="white"/>
<path d="M192.276 17.2197C196.231 17.2197 199.285 18.19 201.498 20.0742L201.71 20.2598L201.72 20.2676C203.991 22.2063 205.152 24.9876 205.152 28.6875V55.0879C205.152 56.9254 205.442 58.3436 206.148 59.1914L206.155 59.2002L206.162 59.208C206.871 59.9877 208.196 60.4767 209.971 60.7725L212.192 61.1426V62.8594H191.192V61.1426L193.415 60.7725C195.189 60.4767 196.514 59.9876 197.223 59.208L197.229 59.2002L197.236 59.1914C197.943 58.3436 198.232 56.9254 198.232 55.0879V31.3281C198.232 29.104 197.842 27.2503 197.023 25.8018C196.206 24.3559 194.981 23.29 193.372 22.6045H193.373C191.816 21.857 189.827 21.5 187.437 21.5C185.093 21.5 182.972 21.9197 181.083 22.7705C179.2 23.5603 177.304 24.8285 175.396 26.5576L175.232 26.7061V55.0879C175.232 56.9254 175.522 58.3436 176.229 59.1914L176.235 59.2002L176.242 59.208C176.951 59.9876 178.276 60.4767 180.05 60.7725L182.272 61.1426V62.8594H161.272V61.1426L163.495 60.7725C165.269 60.4767 166.594 59.9876 167.303 59.208L167.31 59.2002L167.316 59.1914C168.023 58.3436 168.312 56.9254 168.312 55.0879V28.8633C168.312 26.9367 167.894 25.4416 166.92 24.5371C166.425 24.0492 165.666 23.6702 164.706 23.3701C163.826 23.0951 162.738 22.8744 161.448 22.7031V21.3184L174.309 17.5713H174.969V23.9961H176.185L176.326 23.8721C178.943 21.5823 181.36 19.95 183.579 18.9561L184.02 18.7656L184.029 18.7617C186.359 17.7391 189.104 17.2197 192.276 17.2197Z" stroke="white"/>
<path d="M149.967 17.5723V55.0879C149.967 56.9256 150.256 58.3445 150.963 59.1924L150.977 59.208C151.685 59.9876 153.01 60.4777 154.784 60.7734L157.007 61.1426V62.8604H136.007V61.1426L138.229 60.7734C140.004 60.4777 141.328 59.9876 142.037 59.208L142.051 59.1924C142.757 58.3445 143.047 56.9256 143.047 55.0879V28.8643C143.047 26.9377 142.629 25.4427 141.655 24.5381H141.654C141.159 24.05 140.401 23.6712 139.44 23.3711C138.56 23.0961 137.472 22.8744 136.183 22.7031V21.3203L149.304 17.5723H149.967ZM145.627 0.5C146.911 0.500027 147.991 0.923793 148.893 1.77246C149.777 2.60524 150.23 3.69917 150.23 5.10352C150.23 6.50744 149.776 7.63699 148.882 8.53223C147.982 9.37486 146.907 9.79587 145.627 9.7959C144.279 9.7959 143.173 9.36947 142.276 8.52637C141.386 7.63219 140.935 6.50396 140.935 5.10352C140.935 3.69907 141.389 2.60526 142.273 1.77246C143.171 0.927646 144.278 0.5 145.627 0.5Z" stroke="white"/>
<path d="M112.897 17.2197C116.631 17.2198 119.626 18.1094 121.924 19.8467L121.928 19.8496C124.248 21.5621 125.357 23.9512 125.245 27.0859V27.0869L124.365 53.9277V53.9307C124.305 56.2668 124.865 57.9953 126.296 58.7822L126.305 58.7871C127.578 59.4541 129.834 59.883 132.989 60.125V61.2988L130.284 61.9951L130.272 61.999L130.26 62.0029C128.392 62.5868 126.922 62.9595 125.843 63.1299L125.828 63.1318L125.812 63.1357C124.768 63.3679 123.989 63.4756 123.457 63.4756C121.941 63.4756 120.875 63.1381 120.179 62.543C119.478 61.8939 118.971 61.143 118.648 60.2871C118.361 59.3651 118.163 58.6275 118.052 58.0693L117.971 57.668H116.653L116.508 57.8096C114.169 60.0938 111.986 61.6365 109.96 62.4697L109.563 62.624C107.446 63.3681 105.272 63.7393 103.041 63.7393C100.449 63.7392 98.4626 63.3352 97.0391 62.5713C95.6507 61.7359 94.6746 60.7242 94.0801 59.543C93.521 58.254 93.2452 56.9757 93.2451 55.7041C93.2451 53.8348 93.903 51.9393 95.2637 50.0107C96.677 48.032 98.9922 46.02 102.247 43.9854C105.55 41.9573 110.002 39.9473 115.616 37.959L115.618 37.958L117.818 37.166L118.139 37.0508L118.148 36.7109L118.413 27.999V27.9971C118.475 25.703 117.757 23.7761 116.242 22.2617C114.719 20.6795 112.613 19.916 109.993 19.916C107.874 19.916 105.996 20.6371 104.382 22.0654C102.75 23.5093 101.628 25.7329 100.97 28.666H100.969L100.967 28.6777C100.936 28.832 100.83 29.0287 100.571 29.2627C100.313 29.4961 99.9293 29.7418 99.3994 29.9932C98.4324 30.4213 97.1041 30.6514 95.3848 30.6514C94.414 30.6513 93.7334 30.5355 93.2998 30.3428C93.164 30.2823 93.1041 30.205 93.0732 30.0938C93.0356 29.958 93.0336 29.7308 93.1318 29.377C94.0375 27.1835 95.5368 25.172 97.6484 23.3457C99.776 21.5057 102.192 20.0381 104.9 18.9434L104.909 18.9395C107.611 17.7896 110.273 17.2197 112.897 17.2197ZM117.386 39.2197L116.682 39.4834C112.441 41.0735 109.172 42.645 106.895 44.2031C104.639 45.7462 103.044 47.263 102.169 48.7637L102.161 48.7773C101.373 50.233 100.957 51.6064 100.957 52.8877C100.957 54.8378 101.541 56.3839 102.785 57.4287C104.012 58.4595 105.8 58.9316 108.058 58.9316C110.215 58.9316 112.026 58.6029 113.465 57.915L113.473 57.9111C114.898 57.1986 116.179 56.4541 117.315 55.6768L117.524 55.5332L117.533 55.2803L118.061 39.7051L118.086 38.957L117.386 39.2197Z" stroke="white"/>
<path d="M83.9189 17.396C85.9737 17.396 87.4216 17.8261 88.3506 18.6001L88.3613 18.6089C89.3568 19.395 89.8428 20.3947 89.8428 21.6479C89.8428 22.4339 89.5296 23.1622 88.8457 23.8462L88.8379 23.853L88.8311 23.8608C88.1916 24.5535 87.4235 25.0308 86.5186 25.2993C85.6569 25.4987 84.8233 25.3764 83.9941 24.9116H83.9951L79.7705 22.4478C78.8633 21.9188 77.8181 22.0396 76.7334 22.6138C75.6963 23.1628 74.6668 23.8906 73.6455 24.7915C72.6931 25.6249 71.8825 26.4639 71.2168 27.3091C70.8918 27.6932 70.6413 28.0048 70.4697 28.2388C70.3847 28.3547 70.3122 28.461 70.2588 28.5532C70.2323 28.599 70.2045 28.6508 70.1826 28.7046C70.1648 28.7483 70.1309 28.8398 70.1309 28.9517V55.0884C70.1309 56.9259 70.4205 58.3441 71.127 59.1919L71.1338 59.2007L71.1406 59.2085C71.8556 59.995 73.1897 60.4513 74.9648 60.688H74.9717L78.9307 61.1626V62.8599H56.1709V61.1431L58.3896 60.7729L58.3906 60.7739C59.3212 60.6238 60.1078 60.4253 60.7402 60.1724C61.3681 59.9212 61.8796 59.6022 62.2178 59.189L62.2168 59.188C62.9213 58.3398 63.2109 56.9235 63.2109 55.0884V28.8638C63.2109 26.82 62.7338 25.264 61.6025 24.4155H61.6016C61.0869 23.9798 60.3478 23.6307 59.4258 23.3481C58.5803 23.089 57.5519 22.876 56.3467 22.7065V21.3188L69.207 17.5718H69.8672V24.6118H71.4209L71.5693 24.397C72.9982 22.3395 74.7383 20.6566 76.791 19.3442C78.8761 18.0482 81.2474 17.396 83.9189 17.396Z" stroke="white"/>
<path d="M26.1357 2.25977C33.9025 2.25977 39.5273 3.54838 43.0977 6.04199L43.1025 6.04492C46.6501 8.46645 48.4277 11.9719 48.4277 16.6318C48.4277 20.3531 47.2121 23.3892 44.793 25.7803C42.3605 28.1844 38.6752 29.9722 33.6816 31.1045L33.7354 32.0889C39.3191 32.7287 43.267 34.2614 45.6748 36.6133C48.0838 38.9663 49.3076 42.1432 49.3076 46.2002C49.3075 49.2233 48.5673 52.011 47.0869 54.5732C45.7159 56.8915 43.5432 58.813 40.5312 60.3223L39.917 60.6182C36.6643 62.1009 32.2285 62.8594 26.5762 62.8594H0.5V61.1729L3.65625 60.8652L3.65527 60.8643C5.638 60.6837 7.14577 60.1364 8.03418 59.1113C8.91674 58.0929 9.2998 56.4744 9.2998 54.3838V10.7354C9.29975 8.6452 8.91649 7.02717 8.03418 6.00879C7.14575 4.98368 5.63806 4.43443 3.65527 4.25391H3.65625L0.5 3.94629V2.25977H26.1357ZM16.5723 56.4961C16.5723 57.1646 16.7315 57.7695 17.0713 58.2881C17.4101 58.8053 17.9076 59.205 18.5303 59.5L18.5391 59.5039C19.82 60.0802 22.0302 60.3398 25.0801 60.3398C30.3687 60.3398 34.4916 59.1516 37.3721 56.7002C40.2616 54.2409 41.6835 50.7754 41.6836 46.376C41.6836 42.2173 40.3826 38.9805 37.7207 36.752C35.1313 34.4764 31.3589 33.3799 26.4883 33.3799H16.5723V56.4961ZM25.2559 4.7793C22.6597 4.77931 20.5808 5.0144 19.0439 5.50391C18.2985 5.72134 17.6859 6.02254 17.2539 6.43652C16.8078 6.86405 16.5723 7.39635 16.5723 8.00781V30.8594H26.6641C30.6457 30.8594 33.996 29.6487 36.6797 27.209C39.446 24.7478 40.8037 21.2858 40.8037 16.8955C40.8037 13.1364 39.5544 10.1426 37.0205 7.97949C34.4819 5.81242 30.5242 4.7793 25.2559 4.7793Z" stroke="white"/>
</svg>
