<svg width="213" height="142" viewBox="0 0 213 142" fill="none" xmlns="http://www.w3.org/2000/svg">
<path d="M117.494 138.424C119.665 140.301 122.569 141.24 126.206 141.24C129.55 141.24 132.513 140.507 135.094 139.04C137.676 137.515 139.876 135.813 141.694 133.936L140.11 132.088C138.82 132.851 137.441 133.525 135.974 134.112C134.508 134.699 132.777 134.992 130.782 134.992C129.257 134.992 127.82 134.816 126.47 134.464C125.18 134.053 124.153 133.261 123.39 132.088C122.628 130.915 122.246 129.184 122.246 126.896V99.88H138.35L140.638 95.92V94.6H122.246V91V87.208H119.606C116.908 91.3733 113.27 94.7173 108.694 97.24V99.88H114.238V129.272C114.238 133.496 115.324 136.547 117.494 138.424Z" fill="white"/>
<path d="M79.717 141.24C75.0237 141.24 70.8877 140.242 67.309 138.248C63.7304 136.253 60.9437 133.466 58.949 129.888C56.9544 126.309 55.957 122.173 55.957 117.48C55.957 113.021 56.9544 109.002 58.949 105.424C60.9437 101.845 63.701 98.9997 67.221 96.8877C70.7997 94.7757 74.965 93.7197 79.717 93.7197C84.469 93.7197 88.6344 94.7171 92.213 96.7117C95.7917 98.7064 98.5784 101.493 100.573 105.072C102.568 108.592 103.565 112.698 103.565 117.392C103.565 121.85 102.568 125.898 100.573 129.536C98.5784 133.114 95.7917 135.96 92.213 138.072C88.693 140.184 84.5277 141.24 79.717 141.24ZM81.125 137.808C85.1144 137.808 88.429 136.312 91.069 133.32C93.709 130.328 95.029 125.81 95.029 119.768C95.029 115.778 94.3837 112.082 93.093 108.68C91.861 105.218 90.013 102.432 87.549 100.32C85.085 98.2077 82.0344 97.1517 78.397 97.1517C74.4077 97.1517 71.093 98.6477 68.453 101.64C65.813 104.632 64.493 109.178 64.493 115.28C64.493 119.21 65.109 122.906 66.341 126.368C67.6317 129.77 69.509 132.528 71.973 134.64C74.437 136.752 77.4877 137.808 81.125 137.808Z" fill="white"/>
<path d="M0 140.36V137.72L3.608 137.368C5.544 137.192 6.89333 136.664 7.656 135.784C8.41867 134.904 8.8 133.437 8.8 131.384V87.7358C8.8 85.6824 8.41867 84.2158 7.656 83.3358C6.89333 82.4558 5.544 81.9278 3.608 81.7518L0 81.3998V78.7598H26.488C33.8213 78.7598 39.3067 80.0504 42.944 82.6318C46.5813 85.2131 48.4 88.9971 48.4 93.9838C48.4 96.1544 47.9013 98.3251 46.904 100.496C45.9653 102.608 44.3227 104.514 41.976 106.216C39.6293 107.858 36.3733 109.032 32.208 109.736C35.2587 110.616 37.752 112.024 39.688 113.96C41.624 115.837 43.1787 118.36 44.352 121.528C45.5253 124.637 46.464 128.48 47.168 133.056C47.4027 134.522 47.8427 135.637 48.488 136.4C49.1333 137.104 50.16 137.514 51.568 137.632L52.712 137.72V140.36H46.64C43.7653 140.36 41.7707 139.832 40.656 138.776C39.6 137.72 38.8373 135.872 38.368 133.232C37.6053 128.714 36.5787 124.784 35.288 121.44C33.9973 118.037 32.3253 115.426 30.272 113.608C28.2187 111.73 25.6667 110.792 22.616 110.792H17.072V131.384C17.072 133.437 17.4533 134.933 18.216 135.872C18.9787 136.752 20.328 137.25 22.264 137.368L26.752 137.72V140.36H0ZM17.072 107.36H24.904C29.2453 107.36 32.736 106.128 35.376 103.664C38.0747 101.141 39.424 98.0024 39.424 94.2478C39.424 90.4344 38.28 87.5011 35.992 85.4478C33.7627 83.3358 30.3893 82.2798 25.872 82.2798C22.6453 82.2798 20.3573 82.5144 19.008 82.9838C17.7173 83.4531 17.072 84.2744 17.072 85.4478V107.36Z" fill="white"/>
<path d="M160.772 63.3597V60.7197L163.412 60.2797C165.172 59.9864 166.346 59.5171 166.932 58.8717C167.519 58.1677 167.812 56.9064 167.812 55.0877V28.8637C167.812 26.9864 167.402 25.6664 166.58 24.9037C165.759 24.0824 163.882 23.4957 160.948 23.1437V20.9437L174.236 17.0717H175.468V23.4957H175.996C178.812 21.0317 181.423 19.3011 183.828 18.3037C186.234 17.2477 189.05 16.7197 192.276 16.7197C196.442 16.7197 199.698 17.7757 202.044 19.8877C204.45 21.9411 205.652 24.8744 205.652 28.6877V55.0877C205.652 56.9064 205.946 58.1677 206.532 58.8717C207.119 59.5171 208.292 59.9864 210.052 60.2797L212.692 60.7197V63.3597H190.692V60.7197L193.332 60.2797C195.092 59.9864 196.266 59.5171 196.852 58.8717C197.439 58.1677 197.732 56.9064 197.732 55.0877V31.3277C197.732 29.1571 197.351 27.3971 196.588 26.0477C195.826 24.6984 194.682 23.7011 193.156 23.0557C191.69 22.3517 189.783 21.9997 187.436 21.9997C185.148 21.9997 183.095 22.4104 181.276 23.2317C179.458 23.9944 177.61 25.2264 175.732 26.9277V55.0877C175.732 56.9064 176.026 58.1677 176.612 58.8717C177.199 59.5171 178.372 59.9864 180.132 60.2797L182.772 60.7197V63.3597H160.772Z" fill="white"/>
<path d="M135.507 63.36V60.72L138.147 60.28C139.907 59.9867 141.08 59.5173 141.667 58.872C142.254 58.168 142.547 56.9067 142.547 55.088V28.864C142.547 26.9867 142.136 25.6667 141.315 24.904C140.494 24.0827 138.616 23.496 135.683 23.144V20.944L149.235 17.072H150.467V55.088C150.467 56.9067 150.76 58.168 151.347 58.872C151.933 59.5173 153.107 59.9867 154.867 60.28L157.507 60.72V63.36H135.507ZM145.627 10.296C144.16 10.296 142.928 9.82667 141.931 8.888C140.933 7.89067 140.435 6.62933 140.435 5.104C140.435 3.57867 140.933 2.34667 141.931 1.408C142.928 0.469332 144.16 0 145.627 0C147.035 0 148.238 0.469332 149.235 1.408C150.232 2.34667 150.731 3.57867 150.731 5.104C150.731 6.62933 150.232 7.89067 149.235 8.888C148.238 9.82667 147.035 10.296 145.627 10.296Z" fill="white"/>
<path d="M103.041 64.2397C100.401 64.2397 98.3185 63.8291 96.7931 63.0077C95.3265 62.1277 94.2705 61.0424 93.6251 59.7517C93.0385 58.4024 92.7451 57.0531 92.7451 55.7037C92.7451 53.7091 93.4491 51.7144 94.8571 49.7197C96.3238 47.6664 98.6998 45.6131 101.985 43.5597C105.329 41.5064 109.817 39.4824 115.449 37.4877L117.649 36.6957L117.913 27.9837C117.972 25.8131 117.297 24.0237 115.889 22.6157C114.481 21.1491 112.516 20.4157 109.993 20.4157C107.998 20.4157 106.238 21.0904 104.713 22.4397C103.188 23.7891 102.102 25.9011 101.457 28.7757C101.34 29.3624 100.724 29.9197 99.6091 30.4477C98.5531 30.9171 97.1451 31.1517 95.3851 31.1517C94.3878 31.1517 93.6251 31.0344 93.0971 30.7997C92.5691 30.5651 92.4225 30.0371 92.6571 29.2157C93.5958 26.9277 95.1505 24.8451 97.3211 22.9677C99.4918 21.0904 101.956 19.5944 104.713 18.4797C107.47 17.3064 110.198 16.7197 112.897 16.7197C116.71 16.7197 119.82 17.6291 122.225 19.4477C124.689 21.2664 125.862 23.8184 125.745 27.1037L124.865 53.9437C124.806 56.2317 125.364 57.6984 126.537 58.3437C127.769 58.9891 130.086 59.4291 133.489 59.6637V61.6877L130.409 62.4797C128.532 63.0664 127.036 63.4477 125.921 63.6237C124.865 63.8584 124.044 63.9757 123.457 63.9757C121.873 63.9757 120.67 63.6237 119.849 62.9197C119.086 62.2157 118.529 61.3944 118.177 60.4557C117.884 59.5171 117.678 58.7544 117.561 58.1677H116.857C114.334 60.6317 111.958 62.2744 109.729 63.0957C107.558 63.8584 105.329 64.2397 103.041 64.2397ZM108.057 58.4317C110.169 58.4317 111.9 58.1091 113.249 57.4637C114.657 56.7597 115.918 56.0264 117.033 55.2637L117.561 39.6877L116.857 39.9517C112.633 41.5357 109.406 43.0904 107.177 44.6157C104.948 46.1411 103.422 47.6077 102.601 49.0157C101.838 50.4237 101.457 51.7144 101.457 52.8877C101.457 56.5837 103.657 58.4317 108.057 58.4317Z" fill="white"/>
<path d="M55.6709 63.36V60.72L58.3109 60.28C60.1296 59.9867 61.3029 59.5173 61.8309 58.872C62.4176 58.168 62.7109 56.9067 62.7109 55.088V28.864C62.7109 26.8693 62.2416 25.52 61.3029 24.816C60.4229 24.0533 58.6042 23.496 55.8469 23.144V20.944L69.1349 17.072H70.3669V24.112H71.1589C72.6256 22 74.4149 20.2693 76.5269 18.92C78.6976 17.5707 81.1616 16.896 83.9189 16.896C86.0309 16.896 87.6149 17.336 88.6709 18.216C89.7856 19.096 90.3429 20.24 90.3429 21.648C90.3429 22.5867 89.9616 23.4373 89.1989 24.2C88.4949 24.9627 87.6442 25.4907 86.6469 25.784C85.6496 26.0187 84.6816 25.872 83.7429 25.344L79.5189 22.88C78.8149 22.4693 77.9642 22.528 76.9669 23.056C75.9696 23.584 74.9722 24.288 73.9749 25.168C73.0362 25.9893 72.2442 26.8107 71.5989 27.632C70.9536 28.3947 70.6309 28.8347 70.6309 28.952V55.088C70.6309 56.9067 70.9242 58.168 71.5109 58.872C72.0976 59.5173 73.2709 59.9573 75.0309 60.192L79.4309 60.72V63.36H55.6709Z" fill="white"/>
<path d="M0 63.3598V60.7198L3.608 60.3678C5.544 60.1918 6.89333 59.6638 7.656 58.7838C8.41867 57.9038 8.8 56.4371 8.8 54.3838V10.7358C8.8 8.68243 8.41867 7.21577 7.656 6.33577C6.89333 5.45577 5.544 4.92777 3.608 4.75177L0 4.39977V1.75977H26.136C33.9387 1.75977 39.688 3.05043 43.384 5.63177C47.08 8.15443 48.928 11.8211 48.928 16.6318C48.928 24.3171 43.8827 29.3038 33.792 31.5918C39.424 32.2371 43.5013 33.7918 46.024 36.2558C48.5467 38.7198 49.808 42.0344 49.808 46.1998C49.808 49.3091 49.0453 52.1838 47.52 54.8238C45.9947 57.4051 43.5307 59.4878 40.128 61.0718C36.784 62.5971 32.2667 63.3598 26.576 63.3598H0ZM25.08 59.8398C30.3013 59.8398 34.2907 58.6664 37.048 56.3198C39.8053 53.9731 41.184 50.6584 41.184 46.3758C41.184 42.3278 39.9227 39.2478 37.4 37.1358C34.936 34.9651 31.2987 33.8798 26.488 33.8798H17.072V56.4958C17.072 57.6691 17.6293 58.5198 18.744 59.0478C19.9173 59.5758 22.0293 59.8398 25.08 59.8398ZM17.072 30.3598H26.664C30.536 30.3598 33.7627 29.1864 36.344 26.8398C38.984 24.4931 40.304 21.1784 40.304 16.8958C40.304 13.2584 39.1013 10.4131 36.696 8.35977C34.2907 6.30643 30.4773 5.27977 25.256 5.27977C22.6747 5.27977 20.6507 5.51443 19.184 5.98377C17.776 6.39443 17.072 7.0691 17.072 8.00777V30.3598Z" fill="white"/>
</svg>
