<svg width="212" height="438" viewBox="0 0 212 438" fill="none" xmlns="http://www.w3.org/2000/svg">
<path d="M3 90H1V110H3" stroke="white"/>
<path d="M3 125H1V157H3" stroke="white"/>
<path d="M3 167H1V199H3" stroke="white"/>
<rect x="3.5" y="0.5" width="208" height="437" rx="37.5" stroke="white"/>
<rect x="5.5" y="3.5" width="204" height="431" rx="34.5" stroke="white"/>
<rect x="10.5" y="7.5" width="194" height="423" rx="29.5" stroke="white"/>
<path d="M161.236 222.315V223.182H150.541V222.315H153.195V219.162C152.196 218.643 151.592 217.802 151.592 216.745C151.592 214.931 153.366 213.749 155.862 213.736C158.358 213.749 160.132 214.931 160.132 216.745C160.132 217.782 159.547 218.617 158.582 219.136V222.315H161.236ZM155.862 214.59C153.944 214.577 152.591 215.444 152.591 216.745C152.591 218.045 153.944 218.925 155.862 218.925C157.767 218.925 159.134 218.045 159.134 216.745C159.134 215.444 157.767 214.577 155.862 214.59ZM154.207 222.315H157.544V219.53C157.038 219.668 156.473 219.74 155.862 219.74C155.264 219.74 154.706 219.674 154.207 219.543V222.315Z" fill="white"/>
<path d="M142.382 216.324C142.382 218.177 143.289 220.187 144.839 221.106L144.248 221.908C143.124 221.225 142.316 219.976 141.909 218.558C141.476 220.108 140.608 221.441 139.439 222.157L138.782 221.382C140.398 220.436 141.384 218.36 141.384 216.363V214.104H142.382V216.324ZM148.925 213V224.68H147.927V213H148.925ZM146.508 213.25V224.089H145.535V218.071H143.551V217.191H145.535V213.25H146.508Z" fill="white"/>
<path d="M137.981 222.328V223.182H127.286V222.328H132.095V219.806H128.547V213.828H129.585V215.943H135.655V213.828H136.667V219.806H133.106V222.328H137.981ZM129.585 218.965H135.655V216.784H129.585V218.965Z" fill="white"/>
<path d="M121.491 215.023V215.864H115.631V215.023H118.061V213.355H119.086V215.023H121.491ZM118.561 216.652C120.032 216.652 121.083 217.756 121.096 219.306C121.083 220.87 120.032 221.987 118.561 221.987C117.102 221.987 116.051 220.87 116.051 219.306C116.051 217.756 117.102 216.652 118.561 216.652ZM118.561 217.52C117.641 217.533 116.971 218.282 116.971 219.306C116.971 220.344 117.641 221.093 118.561 221.08C119.494 221.093 120.177 220.344 120.177 219.306C120.177 218.282 119.494 217.533 118.561 217.52ZM125.603 213V224.68H124.617V218.781H123.067V224.102H122.095V213.289H123.067V217.927H124.617V213H125.603Z" fill="white"/>
<path d="M113.674 213.013V220.147H112.65V213.013H113.674ZM113.674 220.777V224.68H112.65V221.631H105.818V220.777H113.674ZM109.956 213.709V216.928H105.647V218.623C107.736 218.623 109.299 218.557 111.191 218.268L111.309 219.109C109.352 219.411 107.749 219.477 105.594 219.477H104.648V216.113H108.931V214.55H104.622V213.709H109.956Z" fill="white"/>
<path d="M101.693 213.578V214.458C101.693 215.358 101.693 216.416 101.417 217.795H103.046V218.636H92.417V217.795H100.379C100.491 217.237 100.563 216.737 100.602 216.284L93.6126 216.586L93.4812 215.759L100.655 215.535C100.668 215.161 100.668 214.8 100.668 214.458V214.418H93.7571V213.578H101.693ZM101.785 219.766V222.459H94.7162V223.694H102.192V224.522H93.6914V221.671H100.76V220.567H93.6651V219.766H101.785Z" fill="white"/>
<path d="M82.7195 213.21C85.3209 213.21 86.8449 213.92 86.8449 215.221C86.8449 216.548 85.3209 217.257 82.7195 217.27C80.1181 217.257 78.5809 216.548 78.5809 215.221C78.5809 213.92 80.1181 213.21 82.7195 213.21ZM82.7195 213.986C80.775 213.986 79.6451 214.459 79.6582 215.221C79.6451 216.035 80.775 216.482 82.7195 216.482C84.6508 216.482 85.7938 216.035 85.7938 215.221C85.7938 214.459 84.6508 213.986 82.7195 213.986ZM88.0405 218.059V218.899H77.3984V218.059H88.0405ZM86.6741 219.911V222.526H79.7371V223.734H87.0289V224.549H78.7123V221.764H85.6625V220.699H78.686V219.911H86.6741Z" fill="white"/>
<path d="M71.6837 214.024V215.062H74.4165V213.013H75.4544V221.539H74.4165V218.426H71.6837V219.477H66.3232V214.024H71.6837ZM67.348 214.878V218.649H70.672V214.878H67.348ZM75.7172 223.563V224.43H67.8998V220.777H68.9378V223.563H75.7172ZM71.6837 217.572H74.4165V215.929H71.6837V217.572Z" fill="white"/>
<path d="M63.21 213V217.979H65.0756V218.847H63.21V224.68H62.1721V213H63.21ZM54 221.566C54.9525 221.566 56.0627 221.566 57.2189 221.527V220.226C55.8591 220.075 54.9722 219.28 54.9854 218.124C54.9722 216.81 56.089 215.956 57.7444 215.956C59.3736 215.956 60.5035 216.81 60.5166 218.124C60.5035 219.28 59.6035 220.075 58.2568 220.239V221.487C59.3473 221.435 60.4444 221.349 61.4626 221.198L61.5283 221.987C58.9794 222.42 56.2204 222.446 54.1708 222.446L54 221.566ZM61.2524 214.432V215.273H54.2102V214.432H57.2189V213.026H58.2568V214.432H61.2524ZM57.7444 216.758C56.6671 216.758 55.9445 217.309 55.9445 218.124C55.9445 218.939 56.6671 219.464 57.7444 219.451C58.8086 219.464 59.5312 218.939 59.5312 218.124C59.5312 217.309 58.8086 216.758 57.7444 216.758Z" fill="white"/>
</svg>
